<svg xmlns="http://www.w3.org/2000/svg" width="32" height="32" viewBox="0 0 32 32">
  <path id="iconmonstr-dribbble-1" d="M16,0A16,16,0,1,0,32,16,16,16,0,0,0,16,0ZM29.18,15.255a28.54,28.54,0,0,0-9.471-.1c-.325-.751-.663-1.5-1.023-2.24a18.88,18.88,0,0,0,7.4-5.443A13.151,13.151,0,0,1,29.18,15.255ZM24.057,5.545a16.18,16.18,0,0,1-6.648,4.907A61.716,61.716,0,0,0,12.759,3.2a13.029,13.029,0,0,1,11.3,2.344ZM10.036,4.221A59.454,59.454,0,0,1,14.752,11.4,42.405,42.405,0,0,1,3.173,12.869a13.242,13.242,0,0,1,6.863-8.648ZM2.783,16l.017-.341A44.715,44.715,0,0,0,16.067,13.9q.466.95.893,1.909a20.593,20.593,0,0,0-11.116,8.64A13.154,13.154,0,0,1,2.783,16ZM7.888,26.413a17.969,17.969,0,0,1,10.131-8.036,52.182,52.182,0,0,1,2.724,9.947A13.1,13.1,0,0,1,7.888,26.413Zm15.448.573a54.8,54.8,0,0,0-2.56-9.2,26.622,26.622,0,0,1,8.265.261,13.23,13.23,0,0,1-5.705,8.935Z"/>
</svg>
