<svg xmlns="http://www.w3.org/2000/svg" width="296.078" height="466.324" viewBox="0 0 296.078 466.324">
  <g id="light" transform="translate(-873.041 -393.383)">
    <g id="Component_2_1" data-name="Component 2 – 1" transform="translate(873.5 592.349)">
      <line id="Line_1" data-name="Line 1" y1="11" x2="5" transform="translate(126 256.151)" fill="none" stroke="#fff" stroke-width="1"/>
      <path id="Path_1" data-name="Path 1" d="M1.5,110.25,19,101.56s79.908-52.9,93.977-63.026S147.837.614,147.837.614s15.442-14.177,24.681-29.043c2.484-4,2.128-10.981,2.995-15.79.479-2.657,1.362-1.969,2.8-4.906" transform="translate(110 156.151)" fill="none" stroke="#fff" stroke-width="1"/>
      <line id="Line_2" data-name="Line 2" x1="19" y2="44" transform="translate(0 223.151)" fill="none" stroke="#fff" stroke-width="1"/>
      <path id="Path_2" data-name="Path 2" d="M18.712,58.245a58.509,58.509,0,0,1-9-27.574C8.729,14.522,13.085-7.6,13.085-7.6" transform="translate(9 192.151)" fill="none" stroke="#fff" stroke-width="1"/>
      <path id="Path_4" data-name="Path 4" d="M-.2,176.045a96,96,0,0,1,5.292-14.222c1.81-3.773,4.771-8.025,6.615-12.568a198.128,198.128,0,0,0,7.607-22.821s5.044-24.64,7.607-45.972c1.887-15.7.182-17.124,0-25.467-.058-2.586-1-6.927,0-12.237,1.26-6.719,4.5-9.816,8.268-20.506,1.35-3.827,1.406-9.839,5.292-21.167.617-1.8,3.661-3.282,3.661-3.282A25.836,25.836,0,0,1,60.982,5.386c2.667,4.3,7.42,15.24,8.93,26.128C71.688,44.323,68.25,61.25,68.25,61.25" transform="translate(22 10.151)" fill="none" stroke="#fff" stroke-width="1"/>
      <path id="Path_5" data-name="Path 5" d="M-13.5-5.75A26.657,26.657,0,0,1-4.333-2.833c.948.559,2.08.848,2.6,2.167C.182,4.143,1.658,10.3,1.658,14.736,1.658,23.49.607,34.877.607,34.877L4.5,45.833A134.828,134.828,0,0,1,14.5,58.5c.034.052.068.1.254.381,4.164,1.8,6.143,2.047,12.246,4.952,1.855.883,11.667,6.667,11.667,6.667s12.375-.833,22-.833a151.851,151.851,0,0,1,16.5.833" transform="translate(91 70.151)" fill="none" stroke="#fff" stroke-width="1"/>
      <path id="Path_6" data-name="Path 6" d="M21,4a45.238,45.238,0,0,0-8.168-2.219A56.675,56.675,0,0,0,3.122.8" transform="translate(71 101.151)" fill="none" stroke="#fff" stroke-width="1"/>
      <path id="Path_7" data-name="Path 7" d="M.167,16.667s3-4.833,10.333-9.833c2.9-1.975,12.148-6.5,12.148-6.5h11.63" transform="translate(153 123.151)" fill="none" stroke="#fff" stroke-width="1"/>
      <path id="Path_8" data-name="Path 8" d="M-.672,116.317s7.581-12.792,14.937-21.339a102.035,102.035,0,0,1,16.54-14.97s1.89-5.669,2.772-8.441c.329-1.034,7.559-18.393,12.094-24.063.76-1.514.464-3.048.882-5.039.856-4.056,1.622-8.9,2.646-12.976a54.643,54.643,0,0,1,8.567-19.275,32.715,32.715,0,0,1,9.9-9.478,12.762,12.762,0,0,1,6.191,0c3.025.881,5.6,5.054,5.6,5.054" transform="translate(176 7.151)" fill="none" stroke="#fff" stroke-width="1"/>
      <path id="Path_9" data-name="Path 9" d="M-1.085,1.386A17.463,17.463,0,0,1,5.214,0c3.653-.126,6.425,0,6.425,0" transform="translate(222 54.151)" fill="none" stroke="#fff" stroke-width="1"/>
      <path id="Path_11" data-name="Path 11" d="M-1.085,1.386A18.942,18.942,0,0,1,5.5,0c3.821-.126,6.719,0,6.719,0" transform="translate(207.418 86.151)" fill="none" stroke="#fff" stroke-width="1"/>
      <path id="Path_15" data-name="Path 15" d="M-1.085,1.386A18.942,18.942,0,0,1,5.5,0c3.821-.126,6.719,0,6.719,0" transform="translate(208.981 125.287) rotate(20)" fill="none" stroke="#fff" stroke-width="1"/>
      <path id="Path_16" data-name="Path 16" d="M-2.293,1.688S-1.425.44,2.4.314a18.594,18.594,0,0,1,6.59.927" transform="translate(232.981 134.287) rotate(20)" fill="none" stroke="#fff" stroke-width="1"/>
      <path id="Path_10" data-name="Path 10" d="M62.416-8.6s-4.831-2.672-9.681,0C47.467-5.7,43.607,1.426,43.259,2.911a122.115,122.115,0,0,0-2.751,17.017c-.361,4.542-.16,10.376,0,16,.074,2.556.529,4.9,0,7.643-.412,2.132-2.4,3.5-3.5,5.479a49.425,49.425,0,0,0-3.4,8.189A86.4,86.4,0,0,0,29.45,79.409S19.333,85.5,12.191,94.275-.3,115.325-.3,115.325" transform="translate(212 11.151)" fill="none" stroke="#fff" stroke-width="1"/>
      <path id="Path_12" data-name="Path 12" d="M46.9,18.5s.755-10.465-3.2-16.2C40.285-2.654,34.827-.923,32.1.1c-5.6,2.1-6.822,10.924-6.822,10.924A61.521,61.521,0,0,0,24.5,29.647a212.29,212.29,0,0,1,.778,22.814S23.45,53.4,21.1,61.3c-1.215,4.084-2.755,11-4,16.2-1.026,4.284-1.6,6.4-1.6,6.4L0,103" transform="translate(235 32.151)" fill="none" stroke="#fff" stroke-width="1"/>
      <path id="Path_13" data-name="Path 13" d="M0,0A19.994,19.994,0,0,0,2.916,1.858,21.487,21.487,0,0,0,8.038,3" transform="translate(260 84.151)" fill="none" stroke="#fff" stroke-width="1"/>
      <path id="Path_19" data-name="Path 19" d="M-.049-.459A7.989,7.989,0,0,0,2.916,1.858,48.018,48.018,0,0,0,9.78,4.024" transform="matrix(-0.616, -0.788, 0.788, -0.616, 257.311, 157.741)" fill="none" stroke="#fff" stroke-width="1"/>
      <path id="Path_14" data-name="Path 14" d="M0,0A19.047,19.047,0,0,0,2.787,1.858,19.759,19.759,0,0,0,7.683,3" transform="matrix(0.883, 0.469, -0.469, 0.883, 250.488, 115.607)" fill="none" stroke="#fff" stroke-width="1"/>
      <path id="Path_17" data-name="Path 17" d="M1.043,32.473s.544-7.622,1.906-16.606c.332-1.565.358-3.963.817-6.261A13.033,13.033,0,0,1,6.76,3.344c1.366-1.6,6.056-2.738,8.848-2.45a10.8,10.8,0,0,1,5.309,2.45,11.849,11.849,0,0,1,2.042,4.764,84.661,84.661,0,0,1,.953,11.57c0,1.814.919,8.78,1.633,20.554.359,5.911.8,8.455,1.225,11.706.341,2.614.661,5.923,0,14.837-.654,8.824-1.048,21.669-2.722,30.9A32.238,32.238,0,0,1,17.5,112.125" transform="translate(268 -0.849)" fill="none" stroke="#fff" stroke-width="1"/>
      <path id="Path_18" data-name="Path 18" d="M0,0S-.026,3.932,2.152,17.271,3.063,65.5,3.063,65.5" transform="translate(282 50.151)" fill="none" stroke="#fff" stroke-width="1"/>
      <path id="Path_20" data-name="Path 20" d="M-.359,12.873A15.685,15.685,0,0,1,6.959,5.739,130.574,130.574,0,0,1,22,0" transform="translate(41 126.151)" fill="none" stroke="#fff" stroke-width="1"/>
      <path id="Path_21" data-name="Path 21" d="M0,37S5.327,25.089,21.077,15.839,58.429,1.906,58.429,1.906" transform="translate(74 171.151)" fill="none" stroke="#fff" stroke-linecap="round" stroke-width="2"/>
    </g>
    <g id="Component_1_1" data-name="Component 1 – 1" transform="translate(940.5 393.383)">
      <path id="Union_5" data-name="Union 5" d="M67.5,281.5c-3.559-1.119-9.236-5.279-12.75-9.751a14.925,14.925,0,0,1-3-5,49.073,49.073,0,0,1-1.75-8L47.5,221.5s-2-1.75-3.25-6.5c-.221-.841-2.25-2.25-6.75-7a31.3,31.3,0,0,1,.34-7.249c.651-5.127.41-9.751,0-18.25-.5-9.25-1.34-10-5.591-22.25-7.341-12.3-11.246-19.54-12.8-22.523q-.625-.81-1.235-1.64A94.483,94.483,0,0,1,5.548,111.982,90.933,90.933,0,0,1,1.839,98.2,78.477,78.477,0,0,1,.5,84,87.094,87.094,0,0,1,2.137,67.168a84.716,84.716,0,0,1,12.116-29.86A83.6,83.6,0,0,1,24.084,24.95,81.751,81.751,0,0,1,36,14.756a79.667,79.667,0,0,1,13.673-7.7,78,78,0,0,1,62.656,0A79.666,79.666,0,0,1,126,14.756,81.751,81.751,0,0,1,137.916,24.95a83.6,83.6,0,0,1,9.832,12.358,84.716,84.716,0,0,1,12.116,29.86A87.094,87.094,0,0,1,161.5,84a72.344,72.344,0,0,1-4.824,24.815,132.666,132.666,0,0,1-9.73,20.645c-1.347,2.574-3.4,6.515-5.446,10.54-3.5,6.874-8.75,12.5-10,16.25a57.774,57.774,0,0,0-4.25,8.5,79.4,79.4,0,0,0-4.5,17.75c-.75,7.5,0,25.5,0,25.5l-8,7s1,.5,0,4.25-2.25,3.5-2.25,3.5l-1.25,35s0,5.25-5.75,14a30.486,30.486,0,0,1-6.5,7.5c-2.172,1.681-5.472,2.163-6.75,4-2.742,2.507-7.524,3.819-12.2,3.819C74.579,287.069,69.252,285.274,67.5,281.5Z" transform="translate(-0.5 -0.383)" fill="#f8d94a"/>
      <path id="Union_6" data-name="Union 6" d="M67.5,281.5c-3.559-1.119-9.236-5.279-12.75-9.751a14.925,14.925,0,0,1-3-5,49.073,49.073,0,0,1-1.75-8L47.5,221.5s-2-1.75-3.25-6.5c-.221-.841-2.25-2.25-6.75-7a31.3,31.3,0,0,1,.34-7.249c.651-5.127.41-9.751,0-18.25-.5-9.25-1.34-10-5.591-22.25-7.341-12.3-11.246-19.54-12.8-22.523q-.625-.81-1.235-1.64A94.483,94.483,0,0,1,5.548,111.982,90.933,90.933,0,0,1,1.839,98.2,78.477,78.477,0,0,1,.5,84,87.094,87.094,0,0,1,2.137,67.168a84.716,84.716,0,0,1,12.116-29.86A83.6,83.6,0,0,1,24.084,24.95,81.751,81.751,0,0,1,36,14.756a79.667,79.667,0,0,1,13.673-7.7,78,78,0,0,1,62.656,0A79.666,79.666,0,0,1,126,14.756,81.751,81.751,0,0,1,137.916,24.95a83.6,83.6,0,0,1,9.832,12.358,84.716,84.716,0,0,1,12.116,29.86A87.094,87.094,0,0,1,161.5,84a72.344,72.344,0,0,1-4.824,24.815,132.666,132.666,0,0,1-9.73,20.645c-1.347,2.574-3.4,6.515-5.446,10.54-3.5,6.874-8.75,12.5-10,16.25a57.774,57.774,0,0,0-4.25,8.5,79.4,79.4,0,0,0-4.5,17.75c-.75,7.5,0,25.5,0,25.5l-8,7s1,.5,0,4.25-2.25,3.5-2.25,3.5l-1.25,35s0,5.25-5.75,14a30.486,30.486,0,0,1-6.5,7.5c-2.172,1.681-5.472,2.163-6.75,4-2.742,2.507-7.524,3.819-12.2,3.819C74.579,287.069,69.252,285.274,67.5,281.5Z" transform="translate(-0.5 -0.383)" fill="#f8d94a"/>
      <path id="Union_7" data-name="Union 7" d="M67.5,281.5c-3.559-1.119-9.236-5.279-12.75-9.751a14.925,14.925,0,0,1-3-5,49.073,49.073,0,0,1-1.75-8L47.5,221.5s-2-1.75-3.25-6.5c-.221-.841-2.25-2.25-6.75-7a31.3,31.3,0,0,1,.34-7.249c.651-5.127.41-9.751,0-18.25-.5-9.25-1.34-10-5.591-22.25-7.341-12.3-11.246-19.54-12.8-22.523q-.625-.81-1.235-1.64A94.483,94.483,0,0,1,5.548,111.982,90.933,90.933,0,0,1,1.839,98.2,78.477,78.477,0,0,1,.5,84,87.094,87.094,0,0,1,2.137,67.168a84.716,84.716,0,0,1,12.116-29.86A83.6,83.6,0,0,1,24.084,24.95,81.751,81.751,0,0,1,36,14.756a79.667,79.667,0,0,1,13.673-7.7,78,78,0,0,1,62.656,0A79.666,79.666,0,0,1,126,14.756,81.751,81.751,0,0,1,137.916,24.95a83.6,83.6,0,0,1,9.832,12.358,84.716,84.716,0,0,1,12.116,29.86A87.094,87.094,0,0,1,161.5,84a72.344,72.344,0,0,1-4.824,24.815,132.666,132.666,0,0,1-9.73,20.645c-1.347,2.574-3.4,6.515-5.446,10.54-3.5,6.874-8.75,12.5-10,16.25a57.774,57.774,0,0,0-4.25,8.5,79.4,79.4,0,0,0-4.5,17.75c-.75,7.5,0,25.5,0,25.5l-8,7s1,.5,0,4.25-2.25,3.5-2.25,3.5l-1.25,35s0,5.25-5.75,14a30.486,30.486,0,0,1-6.5,7.5c-2.172,1.681-5.472,2.163-6.75,4-2.742,2.507-7.524,3.819-12.2,3.819C74.579,287.069,69.252,285.274,67.5,281.5Z" transform="translate(-0.5 -0.383)" fill="#f8d94a"/>
      <path id="Path_189" data-name="Path 189" d="M.5,0A261.011,261.011,0,0,0,30.713,2,287.187,287.187,0,0,0,61.594.047,30.67,30.67,0,0,1,59.452,7.5a37.206,37.206,0,0,1-3.93,6.5H5.9A15.541,15.541,0,0,1,2.465,8.75,36.2,36.2,0,0,1,.5,0Z" transform="translate(49 258.617)" fill="#011e30"/>
      <path id="Path_195" data-name="Path 195" d="M0,0H48.833a37.554,37.554,0,0,1-4.472,5.675,12.044,12.044,0,0,1-4.7,2.908H11.333S10.266,8.951,7.268,6.7A79.27,79.27,0,0,1,0,0Z" transform="translate(55.333 272.617)" fill="#055168"/>
      <path id="Path_196" data-name="Path 196" d="M0,0H48.833a37.554,37.554,0,0,1-4.472,5.675,12.044,12.044,0,0,1-4.7,2.908H11.333S10.266,8.951,7.268,6.7A79.27,79.27,0,0,1,0,0Z" transform="translate(55.333 272.617)" fill="#055168"/>
      <path id="Path_197" data-name="Path 197" d="M0,0H48.833a37.554,37.554,0,0,1-4.472,5.675,12.044,12.044,0,0,1-4.7,2.908H11.333S10.266,8.951,7.268,6.7A79.27,79.27,0,0,1,0,0Z" transform="translate(55.333 272.617)" fill="#055168"/>
      <path id="Path_199" data-name="Path 199" d="M.313,0,27.281.063a25.41,25.41,0,0,1-3.094,2.875c-1.805,1.41-5.812,2.25-5.812,2.25a26.131,26.131,0,0,1-8.187.5C6.746,5.116,4.9,4.723,2.75,3.313A5.315,5.315,0,0,1,.313,0Z" transform="translate(66.812 280.992)" fill="#28b7b8"/>
      <path id="Path_179" data-name="Path 179" d="M-.312-.75A201.377,201.377,0,0,0,30.332,1.972,233.784,233.784,0,0,0,61.5-.5s0,1.125-.109,2.313-.328,2.438-.328,2.438A300.031,300.031,0,0,1,30.332,6.078,256.337,256.337,0,0,1,0,4.025Z" transform="translate(49.5 254.617)" fill="#f5c810"/>
      <path id="Path_146" data-name="Path 146" d="M0-.406A239.5,239.5,0,0,0,31.52,1.972,228.391,228.391,0,0,0,63.562-.668V4.025A292.064,292.064,0,0,1,31.52,6.078,204.352,204.352,0,0,1,.219,3.344Z" transform="translate(47.937 234.617)" fill="#20baa7"/>
      <path id="Path_147" data-name="Path 147" d="M0-.668a216.366,216.366,0,0,0,31.52,2.64A228.391,228.391,0,0,0,63.562-.668V4.025A292.064,292.064,0,0,1,31.52,6.078C15.629,6.078.438,4.563.438,4.563Z" transform="translate(47.937 234.617)" fill="#20baa7"/>
      <path id="Path_148" data-name="Path 148" d="M0-.668a216.366,216.366,0,0,0,31.52,2.64A252.867,252.867,0,0,0,63.75-.453l-.188,4.478A292.064,292.064,0,0,1,31.52,6.078,266.669,266.669,0,0,1,.375,4.031Z" transform="translate(47.937 234.617)" fill="#20baa7"/>
      <path id="Path_149" data-name="Path 149" d="M0-.668a179.02,179.02,0,0,0,31.892,3.29A190.741,190.741,0,0,0,64.313-.635l-.125,5.859a241.879,241.879,0,0,1-32.3,2.515A227.292,227.292,0,0,1,.434,5.287Z" transform="translate(47.5 228.955)" fill="#ea0f55"/>
      <path id="Path_152" data-name="Path 152" d="M-.5-1.025A221.009,221.009,0,0,0,32.031,1.787C48.179,1.787,64.593.225,64.593.225l-.28,6.5A206.564,206.564,0,0,1,32.031,9.662,184.921,184.921,0,0,1,.063,6.475Z" transform="translate(47.5 221.955)" fill="#24beb1"/>
      <path id="Path_155" data-name="Path 155" d="M0-.668A295.282,295.282,0,0,0,36.094,1.943,264.435,264.435,0,0,0,71-.668V2.364a10.471,10.471,0,0,1-.7,3.049,5.2,5.2,0,0,1-1.6,1.945A259.511,259.511,0,0,1,35.208,9.67,159.319,159.319,0,0,1,3.314,6.44,11.707,11.707,0,0,1,0,1.787C-1.078-1.108,0-.668,0-.668Z" transform="translate(44 214.955)" fill="#08647d"/>
      <path id="Path_158" data-name="Path 158" d="M.515,4.441a327.373,327.373,0,0,1,37.5-2.625c17.983,0,33.584,1.376,33,2.625h0S69.164,7.326,60.277,8.39A191.451,191.451,0,0,1,35.685,9.67c-9.513,0-20.372-.113-27.418-1.28C2.51,7.436.015,4.441.015,4.441Z" transform="translate(115.014 218.933) rotate(180)" fill="#f1cb02"/>
      <path id="Path_159" data-name="Path 159" d="M.515,4.441a327.373,327.373,0,0,1,37.5-2.625c17.983,0,33.584,1.376,33,2.625h0S69.164,7.326,60.277,8.39A191.451,191.451,0,0,1,35.685,9.67c-9.513,0-20.372-.113-27.418-1.28C2.51,7.436.015,4.441.015,4.441Z" transform="translate(115.014 218.933) rotate(180)" fill="#f1cb02"/>
      <path id="Path_160" data-name="Path 160" d="M.515,4.441a327.373,327.373,0,0,1,37.5-2.625c17.983,0,33.584,1.376,33,2.625h0S69.164,7.326,60.277,8.39A191.451,191.451,0,0,1,35.685,9.67c-9.513,0-20.372-.113-27.418-1.28C2.51,7.436.015,4.441.015,4.441Z" transform="translate(115.014 218.933) rotate(180)" fill="#f1cb02"/>
      <path id="Path_163" data-name="Path 163" d="M-.156-.734a212.178,212.178,0,0,0,31.49,2.706A228.007,228.007,0,0,0,63.188-.641s.035.692,0,1.875-.172,2.875-.172,2.875A295.51,295.51,0,0,1,31.334,6.078,272.633,272.633,0,0,1-.016,4.016Z" transform="translate(48.312 238.617)" fill="#e1c91b"/>
      <path id="Path_166" data-name="Path 166" d="M0-.668a213.857,213.857,0,0,0,31.334,2.64A229.452,229.452,0,0,0,63.078-.594L62.813,4A274.313,274.313,0,0,1,31.334,6.078a213.09,213.09,0,0,1-30.8-2.5Z" transform="translate(48.312 242.617)" fill="#20baa7"/>
      <path id="Path_182" data-name="Path 182" d="M0-.668a208.059,208.059,0,0,0,30.9,2.64A224.524,224.524,0,0,0,62.484-.656s-.062,2.578-.109,3.156-.109,1.547-.109,1.547A282.373,282.373,0,0,1,30.9,6.078,225.832,225.832,0,0,1,.375,3.75Z" transform="translate(48.687 246.617)" fill="#ea0f55"/>
      <path id="Path_185" data-name="Path 185" d="M0-.668a206.009,206.009,0,0,0,30.745,2.64A213.787,213.787,0,0,0,62.016-.719L62,4.025A278,278,0,0,1,30.745,6.078,256.184,256.184,0,0,1,.281,4.031Z" transform="translate(49 250.617)" fill="#31baa9"/>
      <path id="Path_167" data-name="Path 167" d="M0,83.5S-2.5,40.9,10.7,20.7C21.445,4.257,35.37.669,40.485-.144c0,0-5.785,13.844-19.585,34.444-7.8,19.2-5.6,34-6,46.7-2.3,1.666-5.153,4.547-7.2,6.1A16.841,16.841,0,0,0,0,83.5" transform="translate(107 127.117)" fill="#08fbdb"/>
      <path id="Path_168" data-name="Path 168" d="M0,83.5S-2.5,40.9,10.7,20.7C21.445,4.257,35.37.669,40.485-.144c0,0-5.785,13.844-19.585,34.444-7.8,19.2-5.6,34-6,46.7-2.3,1.666-5.153,4.547-7.2,6.1A16.841,16.841,0,0,0,0,83.5" transform="translate(107 127.117)" fill="#08fbdb"/>
      <path id="Path_169" data-name="Path 169" d="M0,83.5S-2.5,40.9,10.7,20.7C21.445,4.257,35.37.669,40.485-.144c0,0-5.785,13.844-19.585,34.444-7.8,19.2-5.6,34-6,46.7-2.3,1.666-5.153,4.547-7.2,6.1A16.841,16.841,0,0,0,0,83.5" transform="translate(107 127.117)" fill="#08fbdb"/>
      <path id="Path_170" data-name="Path 170" d="M.9-.7S21.37,17.674,20.5,52.022,34.625,90.188,34.625,90.188a79.84,79.84,0,0,0,1.938-7.75c1.975-9.656,3.77-28.2-2.367-43.677C25.3,16.331.9-.7.9-.7" transform="translate(123 14.117)" fill="#f62c5e"/>
      <path id="Path_171" data-name="Path 171" d="M.9-.7S21.37,17.674,20.5,52.022,34.625,90.188,34.625,90.188a79.84,79.84,0,0,0,1.938-7.75c1.975-9.656,3.77-28.2-2.367-43.677C25.3,16.331.9-.7.9-.7" transform="translate(123 14.117)" fill="#f62c5e"/>
      <path id="Path_172" data-name="Path 172" d="M.9-.7S21.37,17.674,20.5,52.022,34.625,90.188,34.625,90.188a79.84,79.84,0,0,0,1.938-7.75c1.975-9.656,3.77-28.2-2.367-43.677C29.882,27.882,22.125,17.641,14.875,10.438a92.751,92.751,0,0,0-15.062-12" transform="translate(123 14.117)" fill="#f62c5e"/>
      <path id="Path_137" data-name="Path 137" d="M-1.5-.1s7.25,12.35,18,18.6,11.125,1.75,21,9,4.036,9.912,16.5,21c4.749,4.224,14.1,4.424,20,8.5A32.026,32.026,0,0,1,85.75,72.5a97.354,97.354,0,0,0-3.583-35.167C78.725,26.229,72.176,14.895,63.5,7.75,51.1.7,36.63-3.856,23.3-3.9A87.7,87.7,0,0,0-1.5-.1" transform="translate(58 4.117)" fill="#fde1af"/>
      <path id="Path_138" data-name="Path 138" d="M-1.5-.1s7.25,12.35,18,18.6,11.125,1.75,21,9,4.036,9.912,16.5,21c4.749,4.224,14.1,4.424,20,8.5A32.026,32.026,0,0,1,85.75,72.5a97.354,97.354,0,0,0-3.583-35.167C78.725,26.229,72.176,14.895,63.5,7.75,51.1.7,36.63-3.856,23.3-3.9A87.7,87.7,0,0,0-1.5-.1" transform="translate(58 4.117)" fill="#fde1af"/>
      <path id="Path_139" data-name="Path 139" d="M-2.125-.1S5.75,12.25,16.5,18.5s11.125,1.75,21,9,4.036,9.912,16.5,21c4.749,4.224,14.1,4.424,20,8.5A32.026,32.026,0,0,1,85.75,72.5a97.354,97.354,0,0,0-3.583-35.167C78.725,26.229,72.926,15.145,64.25,8,56.8,3.763,48.313-.375,39.563-2.062a56.508,56.508,0,0,0-16.25-2A71.881,71.881,0,0,0-2.125-.1" transform="translate(58 4.117)" fill="#fde1af"/>
      <g id="Group_10" data-name="Group 10" transform="translate(671.5 351.617)" opacity="0.8">
        <path id="Path_38" data-name="Path 38" d="M6.786,3.5s6.044-.167,26.28,0,28.791,0,28.791,0" transform="translate(-601.429 -196.571) rotate(90)" fill="none"/>
        <path id="Path_39" data-name="Path 39" d="M6.786,3.5s6.044-.167,26.28,0,28.791,0,28.791,0" transform="translate(-573.429 -196.571) rotate(90)" fill="none"/>
        <path id="Path_69" data-name="Path 69" d="M6.536-16.179s13.366,3.4,36.5,9.25c9.89,2.5,30.417,10.528,45,10.429,47.5-.321,48.786,0,48.786,0" transform="translate(-580.429 -271.536) rotate(90)" fill="none"/>
        <path id="Path_70" data-name="Path 70" d="M0,19.68s13.366-3.4,36.5-9.25C46.39,7.927,66.917-.1,81.5,0c47.5.321,48.786,0,48.786,0" transform="translate(-598.25 -265) rotate(90)" fill="none"/>
        <path id="Path_73" data-name="Path 73" d="M-.25-1.5s10.625-7.125,15-7.375,5.375,3.375,11.5,3.25,5.375-3,9.875-3.25C40.375-8.75,51.75-1.5,51.75-1.5" transform="translate(-616.5 -268.5)" fill="none"/>
        <line id="Line_3" data-name="Line 3" y2="73" transform="translate(-579.5 -350.5)" fill="none"/>
        <path id="Path_72" data-name="Path 72" d="M.1,0,10.75,36h2V58.75L15.5,61l3.25-2.25V36h2L31.5,0" transform="translate(-606.5 -275.5)" fill="none"/>
        <line id="Line_4" data-name="Line 4" y2="7" transform="translate(-592.5 -246.5)" fill="none"/>
        <line id="Line_6" data-name="Line 6" y2="7" transform="translate(-589.5 -246.5)" fill="none"/>
        <line id="Line_5" data-name="Line 5" x1="10" transform="translate(-595.5 -239.5)" fill="none"/>
        <circle id="Ellipse_4" data-name="Ellipse 4" cx="3" cy="3" r="3" transform="translate(-567 -271)" fill="#ea0874"/>
        <circle id="Ellipse_5" data-name="Ellipse 5" cx="3" cy="3" r="3" transform="translate(-621 -271)" fill="#ea0874"/>
        <circle id="Ellipse_6" data-name="Ellipse 6" cx="3" cy="3" r="3" transform="translate(-608 -194)" fill="#ea0874"/>
        <circle id="Ellipse_7" data-name="Ellipse 7" cx="3" cy="3" r="3" transform="translate(-580 -194)" fill="#ea0874"/>
      </g>
      <g id="Group_11" data-name="Group 11" transform="translate(671.5 351.617)" opacity="0.8">
        <path id="Path_38-2" data-name="Path 38" d="M6.786,3.5s6.044-.167,26.28,0,28.791,0,28.791,0" transform="translate(-601.429 -196.571) rotate(90)" fill="none" stroke="#707070" stroke-width="0.8"/>
        <path id="Path_39-2" data-name="Path 39" d="M6.786,3.5s6.044-.167,26.28,0,28.791,0,28.791,0" transform="translate(-573.429 -196.571) rotate(90)" fill="none" stroke="#707070" stroke-width="0.8"/>
        <path id="Path_69-2" data-name="Path 69" d="M6.536-16.179s13.366,3.4,36.5,9.25c9.89,2.5,30.417,10.528,45,10.429,47.5-.321,48.875-.085,48.875-.085" transform="translate(-580.429 -271.536) rotate(90)" fill="none" stroke="#707070" stroke-width="0.8"/>
        <path id="Path_70-2" data-name="Path 70" d="M0,19.649s13.43-3.391,36.674-9.235C46.611,7.915,67.236-.1,81.888,0c47.726.321,48.768.03,48.768.03" transform="translate(-598.281 -265) rotate(90)" fill="none" stroke="#707070" stroke-width="0.8"/>
        <path id="Path_73-2" data-name="Path 73" d="M-.25-1.5s10.625-7.125,15-7.375,5.375,3.375,11.5,3.25,5.375-3,9.875-3.25C40.375-8.75,51.75-1.5,51.75-1.5" transform="translate(-616.5 -268.5)" fill="none" stroke="#707070" stroke-width="0.8"/>
        <line id="Line_3-2" data-name="Line 3" y2="73" transform="translate(-579.5 -350.5)" fill="none" stroke="#707070" stroke-width="0.8"/>
        <path id="Path_72-2" data-name="Path 72" d="M.1,0,10.75,36h2V58.75L15.5,61l3.25-2.25V36h2L31.5,0" transform="translate(-606.5 -275.5)" fill="none" stroke="#707070" stroke-width="0.8"/>
        <line id="Line_4-2" data-name="Line 4" y2="7" transform="translate(-592.5 -246.5)" fill="none" stroke="#707070" stroke-width="0.8"/>
        <line id="Line_6-2" data-name="Line 6" y2="7" transform="translate(-589.5 -246.5)" fill="none" stroke="#707070" stroke-width="0.8"/>
        <line id="Line_5-2" data-name="Line 5" x1="10" transform="translate(-595.5 -239.5)" fill="none" stroke="#707070" stroke-width="0.8"/>
        <g id="Ellipse_4-2" data-name="Ellipse 4" transform="translate(-567 -271)" fill="#ea0874" stroke="#707070" stroke-width="0.8">
          <circle cx="3" cy="3" r="3" stroke="none"/>
          <circle cx="3" cy="3" r="2.6" fill="none"/>
        </g>
        <g id="Ellipse_5-2" data-name="Ellipse 5" transform="translate(-621 -271)" fill="#ea0874" stroke="#707070" stroke-width="0.8">
          <circle cx="3" cy="3" r="3" stroke="none"/>
          <circle cx="3" cy="3" r="2.6" fill="none"/>
        </g>
        <g id="Ellipse_6-2" data-name="Ellipse 6" transform="translate(-608 -194)" fill="#ea0874" stroke="#707070" stroke-width="0.8">
          <circle cx="3" cy="3" r="3" stroke="none"/>
          <circle cx="3" cy="3" r="2.6" fill="none"/>
        </g>
        <g id="Ellipse_7-2" data-name="Ellipse 7" transform="translate(-580 -194)" fill="#ea0874" stroke="#707070" stroke-width="0.8">
          <circle cx="3" cy="3" r="3" stroke="none"/>
          <circle cx="3" cy="3" r="2.6" fill="none"/>
        </g>
      </g>
      <path id="Path_142" data-name="Path 142" d="M-3.25-2.312S3.688,5.065,10,9c3.207,2,5.25,1.25,13.5,9S36.75,28.25,36.75,28.25,32.176,15.41,22.813,8.438A60,60,0,0,0,8.375.938,76.558,76.558,0,0,0-3.25-2.312" transform="translate(100 4.117)" fill="#f7fbf2"/>
      <path id="Path_173" data-name="Path 173" d="M20,1S16.25.5,13.25,6c-.747,1.37-1.091,5.326-2.032,7.25C8.925,17.934,8.5,15,7.125,19.375c-.518,1.649.481,3.8,1.375,5.875a31.723,31.723,0,0,1,1.667,5.083S11.3,22.745,13.25,15.167A47.614,47.614,0,0,1,20,1" transform="translate(112 154.117)" fill="#d5333c"/>
      <path id="Path_174" data-name="Path 174" d="M20,1S16.25.5,13.25,6c-.747,1.37-1.091,5.326-2.032,7.25C8.925,17.934,8.5,15,7.125,19.375c-.518,1.649.481,3.8,1.375,5.875a31.723,31.723,0,0,1,1.667,5.083S11.3,22.745,13.25,15.167A47.614,47.614,0,0,1,20,1" transform="translate(112 154.117)" fill="#d5333c"/>
      <path id="Path_175" data-name="Path 175" d="M20,1S16.25.5,13.25,6c-.747,1.37-1.091,5.326-2.032,7.25C8.925,17.934,8.5,15,7.125,19.375c-.518,1.649.481,3.8,1.375,5.875a31.723,31.723,0,0,1,1.667,5.083S11.3,22.745,13.25,15.167A47.614,47.614,0,0,1,20,1" transform="translate(112 154.117)" fill="#d5333c"/>
      <path id="Path_143" data-name="Path 143" d="M.25,1A225.505,225.505,0,0,0,12.125,22.125c1.5,3.625,2,5.5,3.75,9.25a69.361,69.361,0,0,1,2.5,15.594c.127,2.054.219,3.5.219,3.5S27.25,35.75,24,28s-7-6.5-9-10.5S13.5,9,9.75,6A65.156,65.156,0,0,0-.266-.031" transform="translate(19 137.117)" fill="#2ca5d3"/>
      <path id="Path_192" data-name="Path 192" d="M-.917-.516l.2,1.781a55.427,55.427,0,0,0,1.2,5.8,18.032,18.032,0,0,0,3.953,6.453c1.406.094,8.781,0,8.781,0A28.511,28.511,0,0,1,8.624,7.5C7.107,4.627,7.583.469,7.583.469l-8.5-.984" transform="translate(50.416 259.117)" fill="#ef094a"/>
      <path id="Path_198" data-name="Path 198" d="M13.219.531H4.063a8.047,8.047,0,0,1-.562,4.3A15.762,15.762,0,0,1,.156,8.906a30.553,30.553,0,0,0,4.188.156,15.455,15.455,0,0,0,4.313-2.75A14.239,14.239,0,0,0,13.219.531" transform="translate(91 272.117)" fill="#e00f50"/>
      <path id="Path_176" data-name="Path 176" d="M.635.063l.5,7.188L8.323,8.563A31.108,31.108,0,0,1,6.26,4.5a12.793,12.793,0,0,1-.874-3.375L.635.063" transform="translate(46.333 221.117)" fill="#f8f9f4"/>
      <path id="Path_177" data-name="Path 177" d="M.745-.016l.2,3.625s2.188.34,4.063.609,3.438.469,3.438.469A20.475,20.475,0,0,1,6.4,2.461,3.853,3.853,0,0,1,5.557.625L.745-.016" transform="translate(47.145 234.273)" fill="#f8f9f4"/>
      <path id="Path_178" data-name="Path 178" d="M.948-.127a4.113,4.113,0,0,0,0,.75c.031.563.125,1.188.125,1.188l.281,2.266,8.234.984a25.893,25.893,0,0,1-2.318-2.4A4.382,4.382,0,0,1,6.26.686L.948-.127" transform="translate(47.333 242.04)" fill="#f8f9f4"/>
      <path id="Path_188" data-name="Path 188" d="M.354-.156.635,4.063l7.281.813s-1.1-1.769-1.842-2.7A4.939,4.939,0,0,1,5.167.031L.354-.672" transform="translate(48.583 250.617)" fill="#f8f9f4"/>
    </g>
  </g>
</svg>
