<svg id="lite" xmlns="http://www.w3.org/2000/svg" width="119.088" height="211.617" viewBox="0 0 119.088 211.617">
  <g id="lite-2" data-name="lite" transform="translate(-940.5 -393.383)">
    <path id="Union_5" data-name="Union 5" d="M49.428,207.3c-2.626-.825-6.814-3.895-9.406-7.193a11.011,11.011,0,0,1-2.213-3.688,36.2,36.2,0,0,1-1.291-5.9l-1.844-27.481s-1.475-1.291-2.4-4.8c-.163-.62-1.66-1.66-4.98-5.164a23.089,23.089,0,0,1,.251-5.348c.48-3.783.3-7.193,0-13.464-.368-6.824-.989-7.377-4.125-16.414-5.415-9.071-8.3-14.415-9.446-16.616q-.461-.6-.911-1.21A69.7,69.7,0,0,1,3.723,82.243,67.085,67.085,0,0,1,.987,72.079,57.9,57.9,0,0,1,0,61.6,64.252,64.252,0,0,1,1.207,49.183a62.5,62.5,0,0,1,8.938-22.029A61.671,61.671,0,0,1,17.4,18.037a60.31,60.31,0,0,1,8.79-7.521A58.773,58.773,0,0,1,36.275,4.838a57.542,57.542,0,0,1,46.224,0,58.772,58.772,0,0,1,10.087,5.678,60.31,60.31,0,0,1,8.79,7.521,61.671,61.671,0,0,1,7.253,9.117,62.5,62.5,0,0,1,8.938,22.029A64.252,64.252,0,0,1,118.775,61.6a53.37,53.37,0,0,1-3.559,18.307,97.872,97.872,0,0,1-7.178,15.231c-.994,1.9-2.506,4.806-4.018,7.776-2.582,5.071-6.455,9.221-7.377,11.988a42.623,42.623,0,0,0-3.135,6.271,58.574,58.574,0,0,0-3.32,13.095c-.553,5.533,0,18.812,0,18.812l-5.9,5.164s.738.368,0,3.135-1.66,2.582-1.66,2.582L81.7,189.782s0,3.873-4.242,10.328a22.491,22.491,0,0,1-4.8,5.533c-1.6,1.24-4.037,1.6-4.98,2.951-2.023,1.85-5.55,2.817-9,2.817C54.65,211.411,50.72,210.087,49.428,207.3Z" transform="translate(940.5 393.47)" fill="#f8d94a"/>
    <path id="Union_6" data-name="Union 6" d="M49.428,207.3c-2.626-.825-6.814-3.895-9.406-7.193a11.011,11.011,0,0,1-2.213-3.688,36.2,36.2,0,0,1-1.291-5.9l-1.844-27.481s-1.475-1.291-2.4-4.8c-.163-.62-1.66-1.66-4.98-5.164a23.089,23.089,0,0,1,.251-5.348c.48-3.783.3-7.193,0-13.464-.368-6.824-.989-7.377-4.125-16.414-5.415-9.071-8.3-14.415-9.446-16.616q-.461-.6-.911-1.21A69.7,69.7,0,0,1,3.723,82.243,67.085,67.085,0,0,1,.987,72.079,57.9,57.9,0,0,1,0,61.6,64.252,64.252,0,0,1,1.207,49.183a62.5,62.5,0,0,1,8.938-22.029A61.671,61.671,0,0,1,17.4,18.037a60.31,60.31,0,0,1,8.79-7.521A58.773,58.773,0,0,1,36.275,4.838a57.542,57.542,0,0,1,46.224,0,58.772,58.772,0,0,1,10.087,5.678,60.31,60.31,0,0,1,8.79,7.521,61.671,61.671,0,0,1,7.253,9.117,62.5,62.5,0,0,1,8.938,22.029A64.252,64.252,0,0,1,118.775,61.6a53.37,53.37,0,0,1-3.559,18.307,97.872,97.872,0,0,1-7.178,15.231c-.994,1.9-2.506,4.806-4.018,7.776-2.582,5.071-6.455,9.221-7.377,11.988a42.623,42.623,0,0,0-3.135,6.271,58.574,58.574,0,0,0-3.32,13.095c-.553,5.533,0,18.812,0,18.812l-5.9,5.164s.738.368,0,3.135-1.66,2.582-1.66,2.582L81.7,189.782s0,3.873-4.242,10.328a22.491,22.491,0,0,1-4.8,5.533c-1.6,1.24-4.037,1.6-4.98,2.951-2.023,1.85-5.55,2.817-9,2.817C54.65,211.411,50.72,210.087,49.428,207.3Z" transform="translate(940.5 393.47)" fill="#f8d94a"/>
    <path id="Union_7" data-name="Union 7" d="M49.428,207.3c-2.626-.825-6.814-3.895-9.406-7.193a11.011,11.011,0,0,1-2.213-3.688,36.2,36.2,0,0,1-1.291-5.9l-1.844-27.481s-1.475-1.291-2.4-4.8c-.163-.62-1.66-1.66-4.98-5.164a23.089,23.089,0,0,1,.251-5.348c.48-3.783.3-7.193,0-13.464-.368-6.824-.989-7.377-4.125-16.414-5.415-9.071-8.3-14.415-9.446-16.616q-.461-.6-.911-1.21A69.7,69.7,0,0,1,3.723,82.243,67.085,67.085,0,0,1,.987,72.079,57.9,57.9,0,0,1,0,61.6,64.252,64.252,0,0,1,1.207,49.183a62.5,62.5,0,0,1,8.938-22.029A61.671,61.671,0,0,1,17.4,18.037a60.31,60.31,0,0,1,8.79-7.521A58.773,58.773,0,0,1,36.275,4.838a57.542,57.542,0,0,1,46.224,0,58.772,58.772,0,0,1,10.087,5.678,60.31,60.31,0,0,1,8.79,7.521,61.671,61.671,0,0,1,7.253,9.117,62.5,62.5,0,0,1,8.938,22.029A64.252,64.252,0,0,1,118.775,61.6a53.37,53.37,0,0,1-3.559,18.307,97.872,97.872,0,0,1-7.178,15.231c-.994,1.9-2.506,4.806-4.018,7.776-2.582,5.071-6.455,9.221-7.377,11.988a42.623,42.623,0,0,0-3.135,6.271,58.574,58.574,0,0,0-3.32,13.095c-.553,5.533,0,18.812,0,18.812l-5.9,5.164s.738.368,0,3.135-1.66,2.582-1.66,2.582L81.7,189.782s0,3.873-4.242,10.328a22.491,22.491,0,0,1-4.8,5.533c-1.6,1.24-4.037,1.6-4.98,2.951-2.023,1.85-5.55,2.817-9,2.817C54.65,211.411,50.72,210.087,49.428,207.3Z" transform="translate(940.5 393.47)" fill="#f8d94a"/>
    <path id="Path_189" data-name="Path 189" d="M.5,0A192.556,192.556,0,0,0,22.789,1.475,211.867,211.867,0,0,0,45.571.035a22.626,22.626,0,0,1-1.58,5.5,27.448,27.448,0,0,1-2.9,4.8H4.487A11.465,11.465,0,0,1,1.95,6.455,26.7,26.7,0,0,1,.5,0Z" transform="translate(976.518 584.173)" fill="#011e30"/>
    <path id="Path_195" data-name="Path 195" d="M0,0H36.026a27.7,27.7,0,0,1-3.3,4.187,8.885,8.885,0,0,1-3.464,2.146H8.361s-.787.271-3-1.388A58.48,58.48,0,0,1,0,0Z" transform="translate(981.321 594.502)" fill="#055168"/>
    <path id="Path_196" data-name="Path 196" d="M0,0H36.026a27.7,27.7,0,0,1-3.3,4.187,8.885,8.885,0,0,1-3.464,2.146H8.361s-.787.271-3-1.388A58.48,58.48,0,0,1,0,0Z" transform="translate(981.321 594.502)" fill="#055168"/>
    <path id="Path_197" data-name="Path 197" d="M0,0H36.026a27.7,27.7,0,0,1-3.3,4.187,8.885,8.885,0,0,1-3.464,2.146H8.361s-.787.271-3-1.388A58.48,58.48,0,0,1,0,0Z" transform="translate(981.321 594.502)" fill="#055168"/>
    <path id="Path_199" data-name="Path 199" d="M.313,0l19.9.046a18.746,18.746,0,0,1-2.282,2.121,13.5,13.5,0,0,1-4.288,1.66A19.278,19.278,0,0,1,7.6,4.2c-2.539-.422-3.9-.712-5.487-1.752A3.921,3.921,0,0,1,.313,0Z" transform="translate(989.708 600.68)" fill="#28b7b8"/>
    <path id="Path_179" data-name="Path 179" d="M-.312-.75A148.563,148.563,0,0,0,22.295,1.258,172.47,172.47,0,0,0,45.289-.566s0,.83-.081,1.706-.242,1.8-.242,1.8A221.343,221.343,0,0,1,22.295,4.287,189.108,189.108,0,0,1-.082,2.773Z" transform="translate(977.1 581.419)" fill="#f5c810"/>
    <path id="Path_146" data-name="Path 146" d="M0-.475A176.687,176.687,0,0,0,23.253,1.28,168.492,168.492,0,0,0,46.892-.668V2.794A215.465,215.465,0,0,1,23.253,4.309,150.757,150.757,0,0,1,.161,2.292Z" transform="translate(975.865 566.643)" fill="#20baa7"/>
    <path id="Path_147" data-name="Path 147" d="M0-.668A159.62,159.62,0,0,0,23.253,1.28,168.492,168.492,0,0,0,46.892-.668V2.794A215.465,215.465,0,0,1,23.253,4.309C11.53,4.309.323,3.191.323,3.191Z" transform="translate(975.865 566.643)" fill="#20baa7"/>
    <path id="Path_148" data-name="Path 148" d="M0-.668A159.62,159.62,0,0,0,23.253,1.28,186.548,186.548,0,0,0,47.031-.509l-.138,3.3A215.465,215.465,0,0,1,23.253,4.309,196.73,196.73,0,0,1,.277,2.8Z" transform="translate(975.865 566.643)" fill="#20baa7"/>
    <path id="Path_149" data-name="Path 149" d="M0-.668A132.069,132.069,0,0,0,23.528,1.76a140.716,140.716,0,0,0,23.918-2.4l-.092,4.323A178.442,178.442,0,0,1,23.528,5.535,167.681,167.681,0,0,1,.32,3.725Z" transform="translate(975.542 562.466)" fill="#ea0f55"/>
    <path id="Path_152" data-name="Path 152" d="M-.5-1.025a163.046,163.046,0,0,0,24,2.074C35.412,1.049,47.521-.1,47.521-.1l-.207,4.8A152.389,152.389,0,0,1,23.5,6.859,136.423,136.423,0,0,1-.085,4.508Z" transform="translate(975.674 557.396)" fill="#24beb1"/>
    <path id="Path_155" data-name="Path 155" d="M-.126-.674A217.839,217.839,0,0,0,26.5,1.252,195.082,195.082,0,0,0,52.253-.674V1.563a7.725,7.725,0,0,1-.518,2.25,3.838,3.838,0,0,1-1.182,1.435,191.45,191.45,0,0,1-24.7,1.705A117.535,117.535,0,0,1,2.319,4.57,8.636,8.636,0,0,1-.126,1.137C-.921-1-.126-.674-.126-.674Z" transform="translate(973.086 552.144)" fill="#08647d"/>
    <path id="Path_158" data-name="Path 158" d="M.369,1.937A241.514,241.514,0,0,1,28.034,0C41.3,0,52.81,1.015,52.379,1.937h0s-1.365,2.128-7.922,2.913a141.24,141.24,0,0,1-18.142.945c-7.018,0-15.029-.083-20.227-.945A10.334,10.334,0,0,1,0,1.937Z" transform="translate(1025.339 553.558) rotate(180)" fill="#f1cb02"/>
    <path id="Path_159" data-name="Path 159" d="M.369,1.937A241.514,241.514,0,0,1,28.034,0C41.3,0,52.81,1.015,52.379,1.937h0s-1.365,2.128-7.922,2.913a141.24,141.24,0,0,1-18.142.945c-7.018,0-15.029-.083-20.227-.945A10.334,10.334,0,0,1,0,1.937Z" transform="translate(1025.339 553.558) rotate(180)" fill="#f1cb02"/>
    <path id="Path_160" data-name="Path 160" d="M.369,1.937A241.514,241.514,0,0,1,28.034,0C41.3,0,52.81,1.015,52.379,1.937h0s-1.365,2.128-7.922,2.913a141.24,141.24,0,0,1-18.142.945c-7.018,0-15.029-.083-20.227-.945A10.334,10.334,0,0,1,0,1.937Z" transform="translate(1025.339 553.558) rotate(180)" fill="#f1cb02"/>
    <path id="Path_163" data-name="Path 163" d="M-.156-.734a156.531,156.531,0,0,0,23.231,2,168.208,168.208,0,0,0,23.5-1.927s.026.511,0,1.383-.127,2.121-.127,2.121A218.008,218.008,0,0,1,23.075,4.291,201.13,201.13,0,0,1-.053,2.77Z" transform="translate(976.183 569.611)" fill="#e1c91b"/>
    <path id="Path_166" data-name="Path 166" d="M0-.668A157.769,157.769,0,0,0,23.116,1.28,169.274,169.274,0,0,0,46.535-.613l-.2,3.389A202.37,202.37,0,0,1,23.116,4.309,157.2,157.2,0,0,1,.392,2.465Z" transform="translate(976.142 572.545)" fill="#20baa7"/>
    <path id="Path_182" data-name="Path 182" d="M0-.668A153.492,153.492,0,0,0,22.8,1.28,165.639,165.639,0,0,0,46.1-.659s-.046,1.9-.081,2.328-.081,1.141-.081,1.141A208.316,208.316,0,0,1,22.8,4.309,166.6,166.6,0,0,1,.277,2.591Z" transform="translate(976.419 575.496)" fill="#ea0f55"/>
    <path id="Path_185" data-name="Path 185" d="M0-.681A151.979,151.979,0,0,0,22.682,1.266,157.718,157.718,0,0,0,45.751-.719l-.012,3.5A205.089,205.089,0,0,1,22.682,4.3,189,189,0,0,1,.207,2.785Z" transform="translate(976.649 578.46)" fill="#31baa9"/>
    <path id="Path_167" data-name="Path 167" d="M-.049,61.563s-1.844-31.427,7.894-46.33C15.771,3.1,26.044.456,29.817-.144c0,0-4.267,10.213-14.448,25.411-5.754,14.164-4.131,25.083-4.426,34.452-1.7,1.229-3.8,3.355-5.312,4.5A12.424,12.424,0,0,0-.049,61.563" transform="translate(1019.487 487.199)" fill="#08fbdb"/>
    <path id="Path_168" data-name="Path 168" d="M-.049,61.563s-1.844-31.427,7.894-46.33C15.771,3.1,26.044.456,29.817-.144c0,0-4.267,10.213-14.448,25.411-5.754,14.164-4.131,25.083-4.426,34.452-1.7,1.229-3.8,3.355-5.312,4.5A12.424,12.424,0,0,0-.049,61.563" transform="translate(1019.487 487.199)" fill="#08fbdb"/>
    <path id="Path_169" data-name="Path 169" d="M-.049,61.563s-1.844-31.427,7.894-46.33C15.771,3.1,26.044.456,29.817-.144c0,0-4.267,10.213-14.448,25.411-5.754,14.164-4.131,25.083-4.426,34.452-1.7,1.229-3.8,3.355-5.312,4.5A12.424,12.424,0,0,0-.049,61.563" transform="translate(1019.487 487.199)" fill="#08fbdb"/>
    <path id="Path_170" data-name="Path 170" d="M.9-.7S16,12.855,15.36,38.195,25.78,66.351,25.78,66.351a58.9,58.9,0,0,0,1.429-5.717c1.457-7.123,2.782-20.8-1.746-32.222C18.9,11.864.9-.7.9-.7" transform="translate(1031.005 403.981)" fill="#f62c5e"/>
    <path id="Path_171" data-name="Path 171" d="M.9-.7S16,12.855,15.36,38.195,25.78,66.351,25.78,66.351a58.9,58.9,0,0,0,1.429-5.717c1.457-7.123,2.782-20.8-1.746-32.222C18.9,11.864.9-.7.9-.7" transform="translate(1031.005 403.981)" fill="#f62c5e"/>
    <path id="Path_172" data-name="Path 172" d="M.615-.926s15.1,13.555,14.46,38.895,10.42,28.156,10.42,28.156a58.9,58.9,0,0,0,1.429-5.717c1.457-7.123,2.782-20.8-1.746-32.222C22,20.16,16.273,12.6,10.925,7.29A68.426,68.426,0,0,0-.187-1.562" transform="translate(1031.291 404.208)" fill="#f62c5e"/>
    <path id="Path_137" data-name="Path 137" d="M-1.5-1.1S3.849,8.014,11.779,12.625s8.207,1.291,15.492,6.64,2.978,7.312,12.173,15.492c3.5,3.117,10.4,3.264,14.755,6.271a23.627,23.627,0,0,1,8.668,11.435,71.821,71.821,0,0,0-2.644-25.944C57.685,18.328,52.853,9.965,46.453,4.695,37.3-.506,26.63-3.868,16.8-3.9A64.7,64.7,0,0,0-1.5-1.1" transform="translate(983.682 397.443)" fill="#fde1af"/>
    <path id="Path_138" data-name="Path 138" d="M-1.5-1.1S3.849,8.014,11.779,12.625s8.207,1.291,15.492,6.64,2.978,7.312,12.173,15.492c3.5,3.117,10.4,3.264,14.755,6.271a23.627,23.627,0,0,1,8.668,11.435,71.821,71.821,0,0,0-2.644-25.944C57.685,18.328,52.853,9.965,46.453,4.695,37.3-.506,26.63-3.868,16.8-3.9A64.7,64.7,0,0,0-1.5-1.1" transform="translate(983.682 397.443)" fill="#fde1af"/>
    <path id="Path_139" data-name="Path 139" d="M-2.125-1.153s5.81,9.111,13.74,13.722,8.207,1.291,15.492,6.64S30.085,26.52,39.28,34.7c3.5,3.117,10.4,3.264,14.755,6.271A23.627,23.627,0,0,1,62.7,52.406,71.821,71.821,0,0,0,60.06,26.462c-2.539-8.192-6.817-16.369-13.218-21.64C41.344,1.7,35.084-1.356,28.629-2.6A41.688,41.688,0,0,0,16.641-4.077,53.029,53.029,0,0,0-2.125-1.153" transform="translate(983.846 397.5)" fill="#fde1af"/>
    <g id="Group_10" data-name="Group 10" transform="translate(977.567 394.207)" opacity="0.8">
      <path id="Path_38" data-name="Path 38" d="M0,.055s4.459-.123,19.388,0,21.24,0,21.24,0" transform="translate(12.099 118.564) rotate(90)" fill="none"/>
      <path id="Path_39" data-name="Path 39" d="M0,.055s4.459-.123,19.388,0,21.24,0,21.24,0" transform="translate(32.756 118.564) rotate(90)" fill="none"/>
      <path id="Path_69" data-name="Path 69" d="M0,0S9.861,2.506,26.927,6.824c7.3,1.846,22.44,7.767,33.2,7.694,35.042-.237,35.991,0,35.991,0" transform="translate(42.055 63.076) rotate(90)" fill="none"/>
      <path id="Path_70" data-name="Path 70" d="M0,14.519s9.861-2.506,26.927-6.824c7.3-1.846,22.44-7.767,33.2-7.694C95.168.237,96.116,0,96.116,0" transform="translate(16.972 63.076) rotate(90)" fill="none"/>
      <path id="Path_73" data-name="Path 73" d="M-.25-3.437S7.588-8.694,10.816-8.878s3.965,2.49,8.484,2.4,3.965-2.213,7.285-2.4c3.135.092,11.527,5.441,11.527,5.441" transform="translate(3.574 62.825)" fill="none"/>
      <line id="Line_3" data-name="Line 3" y2="53.855" transform="translate(30.804 0)" fill="none"/>
      <path id="Path_72" data-name="Path 72" d="M.1,0,7.957,26.558H9.432V43.342L11.461,45l2.4-1.66V26.558h1.475L23.265,0" transform="translate(10.859 55.33)" fill="none"/>
      <line id="Line_4" data-name="Line 4" y2="5.164" transform="translate(21.214 76.724)" fill="none"/>
      <line id="Line_6" data-name="Line 6" y2="5.164" transform="translate(23.427 76.724)" fill="none"/>
      <line id="Line_5" data-name="Line 5" x1="7.377" transform="translate(19.001 81.888)" fill="none"/>
      <ellipse id="Ellipse_4" data-name="Ellipse 4" cx="2.5" cy="2" rx="2.5" ry="2" transform="translate(39.433 58.793)" fill="#ea0874"/>
      <circle id="Ellipse_5" data-name="Ellipse 5" cx="2" cy="2" r="2" transform="translate(0.433 58.793)" fill="#ea0874"/>
      <ellipse id="Ellipse_6" data-name="Ellipse 6" cx="2.5" cy="2" rx="2.5" ry="2" transform="translate(9.433 115.793)" fill="#ea0874"/>
      <circle id="Ellipse_7" data-name="Ellipse 7" cx="2" cy="2" r="2" transform="translate(30.433 115.793)" fill="#ea0874"/>
    </g>
    <g id="Group_11" data-name="Group 11" transform="translate(977.567 394.207)" opacity="0.8">
      <path id="Path_38-2" data-name="Path 38" d="M0,.055s4.459-.123,19.388,0,21.24,0,21.24,0" transform="translate(12.099 118.564) rotate(90)" fill="none" stroke="#707070" stroke-width="0.8"/>
      <path id="Path_39-2" data-name="Path 39" d="M0,.055s4.459-.123,19.388,0,21.24,0,21.24,0" transform="translate(32.756 118.564) rotate(90)" fill="none" stroke="#707070" stroke-width="0.8"/>
      <path id="Path_69-2" data-name="Path 69" d="M0,0S9.861,2.506,26.927,6.824c7.3,1.846,22.44,7.767,33.2,7.694,35.042-.237,36.057-.063,36.057-.063" transform="translate(42.055 63.076) rotate(90)" fill="none" stroke="#707070" stroke-width="0.8"/>
      <path id="Path_70-2" data-name="Path 70" d="M0,14.5s9.908-2.5,27.055-6.813C34.387,5.839,49.6-.072,60.412,0,95.621.237,96.389.023,96.389.023" transform="translate(16.949 63.076) rotate(90)" fill="none" stroke="#707070" stroke-width="0.8"/>
      <path id="Path_73-2" data-name="Path 73" d="M-.25-3.437S7.588-8.694,10.816-8.878s3.965,2.49,8.484,2.4,3.965-2.213,7.285-2.4c3.135.092,11.527,5.441,11.527,5.441" transform="translate(3.574 62.825)" fill="none" stroke="#707070" stroke-width="0.8"/>
      <line id="Line_3-2" data-name="Line 3" y2="53.855" transform="translate(30.804 0)" fill="none" stroke="#707070" stroke-width="0.8"/>
      <path id="Path_72-2" data-name="Path 72" d="M.1,0,7.957,26.558H9.432V43.342L11.461,45l2.4-1.66V26.558h1.475L23.265,0" transform="translate(10.859 55.33)" fill="none" stroke="#707070" stroke-width="0.8"/>
      <line id="Line_4-2" data-name="Line 4" y2="5.164" transform="translate(21.214 76.724)" fill="none" stroke="#707070" stroke-width="0.8"/>
      <line id="Line_6-2" data-name="Line 6" y2="5.164" transform="translate(23.427 76.724)" fill="none" stroke="#707070" stroke-width="0.8"/>
      <line id="Line_5-2" data-name="Line 5" x1="7.377" transform="translate(19.001 81.888)" fill="none" stroke="#707070" stroke-width="0.8"/>
      <g id="Ellipse_4-2" data-name="Ellipse 4" transform="translate(39.433 58.793)" fill="#ea0874" stroke="#707070" stroke-width="0.8">
        <ellipse cx="2.5" cy="2" rx="2.5" ry="2" stroke="none"/>
        <ellipse cx="2.5" cy="2" rx="2.1" ry="1.6" fill="none"/>
      </g>
      <g id="Ellipse_5-2" data-name="Ellipse 5" transform="translate(0.433 58.793)" fill="#ea0874" stroke="#707070" stroke-width="0.8">
        <circle cx="2" cy="2" r="2" stroke="none"/>
        <circle cx="2" cy="2" r="1.6" fill="none"/>
      </g>
      <g id="Ellipse_6-2" data-name="Ellipse 6" transform="translate(9.433 115.793)" fill="#ea0874" stroke="#707070" stroke-width="0.8">
        <ellipse cx="2.5" cy="2" rx="2.5" ry="2" stroke="none"/>
        <ellipse cx="2.5" cy="2" rx="2.1" ry="1.6" fill="none"/>
      </g>
      <g id="Ellipse_7-2" data-name="Ellipse 7" transform="translate(30.433 115.793)" fill="#ea0874" stroke="#707070" stroke-width="0.8">
        <circle cx="2" cy="2" r="2" stroke="none"/>
        <circle cx="2" cy="2" r="1.6" fill="none"/>
      </g>
    </g>
    <path id="Path_142" data-name="Path 142" d="M-3.25-2.312A60.911,60.911,0,0,0,6.525,6.033c2.366,1.473,3.873.922,9.959,6.64s9.775,7.562,9.775,7.562S22.885,10.762,15.977,5.618A44.266,44.266,0,0,0,5.326.085a56.48,56.48,0,0,0-8.576-2.4" transform="translate(1015.126 397.027)" fill="#f7fbf2"/>
    <path id="Path_173" data-name="Path 173" d="M16.586,1S13.82.628,11.606,4.686c-.551,1.01-.8,3.929-1.5,5.349C8.415,13.49,8.1,11.325,7.088,14.553c-.382,1.217.355,2.8,1.014,4.334a23.4,23.4,0,0,1,1.23,3.75s.839-5.6,2.275-11.189A35.127,35.127,0,0,1,16.586,1" transform="translate(1021.295 506.821)" fill="#d5333c"/>
    <path id="Path_174" data-name="Path 174" d="M16.586,1S13.82.628,11.606,4.686c-.551,1.01-.8,3.929-1.5,5.349C8.415,13.49,8.1,11.325,7.088,14.553c-.382,1.217.355,2.8,1.014,4.334a23.4,23.4,0,0,1,1.23,3.75s.839-5.6,2.275-11.189A35.127,35.127,0,0,1,16.586,1" transform="translate(1021.295 506.821)" fill="#d5333c"/>
    <path id="Path_175" data-name="Path 175" d="M16.586,1S13.82.628,11.606,4.686c-.551,1.01-.8,3.929-1.5,5.349C8.415,13.49,8.1,11.325,7.088,14.553c-.382,1.217.355,2.8,1.014,4.334a23.4,23.4,0,0,1,1.23,3.75s.839-5.6,2.275-11.189A35.127,35.127,0,0,1,16.586,1" transform="translate(1021.295 506.821)" fill="#d5333c"/>
    <path id="Path_143" data-name="Path 143" d="M.115.73A166.362,166.362,0,0,0,8.875,16.314c1.107,2.674,1.475,4.058,2.767,6.824a51.17,51.17,0,0,1,1.844,11.5c.094,1.515.161,2.582.161,2.582s6.386-10.859,3.988-16.576S12.472,15.853,11,12.9,9.89,6.631,7.123,4.418A48.068,48.068,0,0,0-.266-.031" transform="translate(954.587 494.547)" fill="#2ca5d3"/>
    <path id="Path_192" data-name="Path 192" d="M-.917-.516-.767.8A40.89,40.89,0,0,0,.121,5.075,13.3,13.3,0,0,0,3.037,9.836c1.037.069,6.478,0,6.478,0A21.033,21.033,0,0,1,6.121,5.4,10.485,10.485,0,0,1,5.354.211L-.917-.516" transform="translate(977.935 584.678)" fill="#ef094a"/>
    <path id="Path_198" data-name="Path 198" d="M9.793.531H3.038a5.936,5.936,0,0,1-.415,3.174,11.628,11.628,0,0,1-2.467,3,22.54,22.54,0,0,0,3.089.115A11.4,11.4,0,0,0,6.427,4.8,10.5,10.5,0,0,0,9.793.531" transform="translate(1007.593 593.994)" fill="#e00f50"/>
    <path id="Path_176" data-name="Path 176" d="M.635.063,1,5.365l5.3.968a22.95,22.95,0,0,1-1.522-3A9.438,9.438,0,0,1,4.14.846L.635.063" transform="translate(974.515 556.492)" fill="#f8f9f4"/>
    <path id="Path_177" data-name="Path 177" d="M.745-.016l.15,2.674s1.614.251,3,.45,2.536.346,2.536.346A15.1,15.1,0,0,1,4.914,1.811,2.843,2.843,0,0,1,4.3.457L.745-.016" transform="translate(975.086 566.218)" fill="#f8f9f4"/>
    <path id="Path_178" data-name="Path 178" d="M.944-.127a3.034,3.034,0,0,0,0,.553c.023.415.092.876.092.876l.207,1.671L7.319,3.7a19.1,19.1,0,0,1-1.71-1.773A3.233,3.233,0,0,1,4.863.473L.944-.127" transform="translate(975.175 571.978)" fill="#f8f9f4"/>
    <path id="Path_188" data-name="Path 188" d="M.354-.291.562,2.821l5.372.6s-.811-1.3-1.359-1.992A3.644,3.644,0,0,1,3.9-.153L.354-.672" transform="translate(976.249 578.448)" fill="#f8f9f4"/>
  </g>
</svg>
