<svg xmlns="http://www.w3.org/2000/svg" width="32" height="26.005" viewBox="0 0 32 26.005">
  <path id="iconmonstr-twitter-1" d="M32,5.327A13.108,13.108,0,0,1,28.229,6.36a6.576,6.576,0,0,0,2.887-3.632,13.151,13.151,0,0,1-4.169,1.593,6.569,6.569,0,0,0-11.188,5.987A18.638,18.638,0,0,1,2.228,3.449a6.574,6.574,0,0,0,2.031,8.765,6.537,6.537,0,0,1-2.972-.821,6.57,6.57,0,0,0,5.265,6.52,6.58,6.58,0,0,1-2.965.112A6.57,6.57,0,0,0,9.72,22.584,13.2,13.2,0,0,1,0,25.3a18.585,18.585,0,0,0,10.064,2.949c12.189,0,19.076-10.295,18.66-19.528A13.366,13.366,0,0,0,32,5.327Z" transform="translate(0 -2.248)"/>
</svg>
